<svg width="20" height="21" viewBox="0 0 20 21" fill="none" xmlns="http://www.w3.org/2000/svg">
<mask id="mask0_0_2829" style="mask-type:alpha" maskUnits="userSpaceOnUse" x="0" y="0" width="20" height="21">
<rect y="0.375" width="20" height="20" fill="#D9D9D9"/>
</mask>
<g mask="url(#mask0_0_2829)">
<path d="M6.54166 11.2084L8.91666 13.5834C9.08332 13.7501 9.16319 13.9445 9.15624 14.1668C9.1493 14.389 9.06944 14.5834 8.91666 14.7501C8.74999 14.9168 8.55207 15.0036 8.32291 15.0105C8.09374 15.0175 7.89582 14.9376 7.72916 14.7709L3.91666 10.9584C3.74999 10.7918 3.66666 10.5973 3.66666 10.3751C3.66666 10.1529 3.74999 9.95843 3.91666 9.79176L7.72916 5.97926C7.89582 5.81259 8.09374 5.73273 8.32291 5.73967C8.55207 5.74662 8.74999 5.83342 8.91666 6.00009C9.06944 6.16676 9.1493 6.3612 9.15624 6.58342C9.16319 6.80565 9.08332 7.00009 8.91666 7.16676L6.54166 9.54176H15.8333C16.0694 9.54176 16.2674 9.62162 16.4271 9.78134C16.5868 9.94106 16.6667 10.139 16.6667 10.3751C16.6667 10.6112 16.5868 10.8091 16.4271 10.9688C16.2674 11.1286 16.0694 11.2084 15.8333 11.2084H6.54166Z" fill="white"/>
</g>
</svg>
