<svg width="20" height="20" viewBox="0 0 20 20" fill="none" xmlns="http://www.w3.org/2000/svg">
<path d="M7.125 12.25C6.775 12.25 6.47917 12.1292 6.2375 11.8875C5.99583 11.6458 5.875 11.35 5.875 11C5.875 10.65 5.99583 10.3542 6.2375 10.1125C6.47917 9.87083 6.775 9.75 7.125 9.75C7.475 9.75 7.77083 9.87083 8.0125 10.1125C8.25417 10.3542 8.375 10.65 8.375 11C8.375 11.35 8.25417 11.6458 8.0125 11.8875C7.77083 12.1292 7.475 12.25 7.125 12.25ZM13.125 12.25C12.775 12.25 12.4792 12.1292 12.2375 11.8875C11.9958 11.6458 11.875 11.35 11.875 11C11.875 10.65 11.9958 10.3542 12.2375 10.1125C12.4792 9.87083 12.775 9.75 13.125 9.75C13.475 9.75 13.7708 9.87083 14.0125 10.1125C14.2542 10.3542 14.375 10.65 14.375 11C14.375 11.35 14.2542 11.6458 14.0125 11.8875C13.7708 12.1292 13.475 12.25 13.125 12.25ZM10.125 18C12.3583 18 14.25 17.225 15.8 15.675C17.35 14.125 18.125 12.2333 18.125 10C18.125 9.6 18.1 9.2125 18.05 8.8375C18 8.4625 17.9083 8.1 17.775 7.75C17.425 7.83333 17.075 7.89583 16.725 7.9375C16.375 7.97917 16.0083 8 15.625 8C14.1083 8 12.675 7.675 11.325 7.025C9.975 6.375 8.825 5.46667 7.875 4.3C7.34167 5.6 6.57917 6.72917 5.5875 7.6875C4.59583 8.64583 3.44167 9.36667 2.125 9.85V10C2.125 12.2333 2.9 14.125 4.45 15.675C6 17.225 7.89167 18 10.125 18ZM10.1267 19.5C8.81275 19.5 7.57767 19.2507 6.4215 18.752C5.26533 18.2533 4.25967 17.5766 3.4045 16.7218C2.54933 15.8669 1.87225 14.8617 1.37325 13.706C0.874417 12.5503 0.625 11.3156 0.625 10.0017C0.625 8.68775 0.874333 7.45267 1.373 6.2965C1.87167 5.14033 2.54842 4.13467 3.40325 3.2795C4.25808 2.42433 5.26333 1.74725 6.419 1.24825C7.57467 0.749417 8.80942 0.5 10.1233 0.5C11.4373 0.5 12.6723 0.749333 13.8285 1.248C14.9847 1.74667 15.9903 2.42342 16.8455 3.27825C17.7007 4.13308 18.3778 5.13833 18.8768 6.294C19.3756 7.44967 19.625 8.68442 19.625 9.99825C19.625 11.3123 19.3757 12.5473 18.877 13.7035C18.3783 14.8597 17.7016 15.8653 16.8468 16.7205C15.9919 17.5757 14.9867 18.2528 13.831 18.7518C12.6753 19.2506 11.4406 19.5 10.1267 19.5Z" fill="#2B9794"/>
</svg>
