<svg width="16" height="17" viewBox="0 0 16 17" fill="none" xmlns="http://www.w3.org/2000/svg">
<path d="M0.375 15V6.15374C0.375 5.86757 0.439 5.59649 0.567 5.34049C0.695166 5.08432 0.872167 4.87341 1.098 4.70774L6.7905 0.41924C7.10633 0.17824 7.46733 0.0577393 7.8735 0.0577393C8.27967 0.0577393 8.64167 0.17824 8.9595 0.41924L14.652 4.70774C14.8778 4.87341 15.0548 5.08432 15.183 5.34049C15.311 5.59649 15.375 5.86757 15.375 6.15374V15C15.375 15.409 15.2273 15.7612 14.9318 16.0567C14.6363 16.3522 14.284 16.5 13.875 16.5H10.6827C10.4266 16.5 10.2119 16.4133 10.0387 16.24C9.86542 16.0668 9.77875 15.8522 9.77875 15.596V10.7115C9.77875 10.4555 9.69217 10.2408 9.519 10.0675C9.34583 9.89432 9.13117 9.80774 8.875 9.80774H6.875C6.61883 9.80774 6.40417 9.89432 6.231 10.0675C6.05783 10.2408 5.97125 10.4555 5.97125 10.7115V15.596C5.97125 15.8522 5.88458 16.0668 5.71125 16.24C5.53808 16.4133 5.32342 16.5 5.06725 16.5H1.875C1.466 16.5 1.11375 16.3522 0.81825 16.0567C0.52275 15.7612 0.375 15.409 0.375 15Z" fill="#A1A5B7"/>
</svg>
