<svg width="35" height="37" viewBox="0 0 35 37" fill="none" xmlns="http://www.w3.org/2000/svg">
<path d="M26.6122 22.3263C26.5326 22.2337 26.4543 22.141 26.3776 22.0516C25.3217 20.8191 24.683 20.0753 24.683 16.5862C24.683 14.7799 24.2352 13.2977 23.3526 12.1861C22.7019 11.3649 21.8222 10.742 20.6627 10.2816C20.6478 10.2736 20.6344 10.2631 20.6233 10.2505C20.2063 8.90272 19.065 8 17.7779 8C16.4907 8 15.35 8.90272 14.9329 10.2492C14.9218 10.2612 14.9087 10.2714 14.894 10.2793C12.1883 11.3543 10.8733 13.4168 10.8733 16.5848C10.8733 20.0753 10.2355 20.8191 9.17869 22.0503C9.1019 22.1396 9.02368 22.2304 8.94401 22.3249C8.73822 22.5644 8.60784 22.8558 8.56829 23.1646C8.52874 23.4734 8.58168 23.7867 8.72085 24.0674C9.01696 24.6695 9.64805 25.0433 10.3684 25.0433H25.1926C25.9096 25.0433 26.5364 24.6699 26.8335 24.0706C26.9732 23.7899 27.0267 23.4763 26.9875 23.1672C26.9483 22.858 26.818 22.5662 26.6122 22.3263ZM17.7779 28.75C18.4714 28.7495 19.1518 28.5678 19.747 28.2242C20.3421 27.8807 20.8299 27.3881 21.1584 26.7987C21.1739 26.7704 21.1816 26.7388 21.1806 26.7068C21.1797 26.6749 21.1702 26.6437 21.1531 26.6164C21.136 26.589 21.1119 26.5664 21.083 26.5507C21.0542 26.535 21.0217 26.5268 20.9885 26.5268H14.5682C14.535 26.5267 14.5024 26.5348 14.4735 26.5505C14.4446 26.5662 14.4204 26.5888 14.4032 26.6162C14.3861 26.6436 14.3766 26.6748 14.3756 26.7067C14.3747 26.7387 14.3823 26.7704 14.3978 26.7987C14.7263 27.388 15.214 27.8806 15.8091 28.2241C16.4041 28.5677 17.0845 28.7494 17.7779 28.75Z" fill="white"/>
</svg>
