<svg width="18" height="18" viewBox="0 0 18 18" fill="none" xmlns="http://www.w3.org/2000/svg">
<path d="M1.93275 17.5C1.42758 17.5 1 17.325 0.65 16.975C0.3 16.625 0.125 16.1974 0.125 15.6923V2.30775C0.125 1.80258 0.3 1.375 0.65 1.025C1 0.675 1.42758 0.5 1.93275 0.5H15.3173C15.8224 0.5 16.25 0.675 16.6 1.025C16.95 1.375 17.125 1.80258 17.125 2.30775V15.6923C17.125 16.1974 16.95 16.625 16.6 16.975C16.25 17.325 15.8224 17.5 15.3173 17.5H1.93275ZM6.22875 8.92875L8.625 7.73075L11.0212 8.92875C11.2776 9.05692 11.5256 9.04767 11.7653 8.901C12.0051 8.75417 12.125 8.53717 12.125 8.25V2H5.125V8.25C5.125 8.53717 5.24492 8.75417 5.48475 8.901C5.72442 9.04767 5.97242 9.05692 6.22875 8.92875ZM4.375 13.75H7.875C8.08783 13.75 8.266 13.6782 8.4095 13.5345C8.55317 13.391 8.625 13.2128 8.625 13C8.625 12.7872 8.55317 12.609 8.4095 12.4655C8.266 12.3218 8.08783 12.25 7.875 12.25H4.375C4.16217 12.25 3.984 12.3218 3.8405 12.4655C3.69683 12.609 3.625 12.7872 3.625 13C3.625 13.2128 3.69683 13.391 3.8405 13.5345C3.984 13.6782 4.16217 13.75 4.375 13.75Z" fill="#A1A5B7"/>
</svg>
