<svg width="20" height="20" viewBox="0 0 20 20" fill="none" xmlns="http://www.w3.org/2000/svg">
<path d="M6.52875 19.5578C6.04292 19.5578 5.62983 19.3875 5.2895 19.047C4.94917 18.7067 4.779 18.2936 4.779 17.8078C4.779 17.3218 4.94917 16.9086 5.2895 16.5683C5.62983 16.2279 6.04292 16.0577 6.52875 16.0577C7.01475 16.0577 7.42792 16.2279 7.76825 16.5683C8.10858 16.9086 8.27875 17.3218 8.27875 17.8078C8.27875 18.2936 8.10858 18.7067 7.76825 19.047C7.42792 19.3875 7.01475 19.5578 6.52875 19.5578ZM16.2213 19.5578C15.7353 19.5578 15.3221 19.3875 14.9818 19.047C14.6414 18.7067 14.4713 18.2936 14.4713 17.8078C14.4713 17.3218 14.6414 16.9086 14.9818 16.5683C15.3221 16.2279 15.7353 16.0577 16.2213 16.0577C16.7071 16.0577 17.1202 16.2279 17.4605 16.5683C17.8008 16.9086 17.971 17.3218 17.971 17.8078C17.971 18.2936 17.8008 18.7067 17.4605 19.047C17.1202 19.3875 16.7071 19.5578 16.2213 19.5578ZM4.67125 2.25H18.5558C18.9648 2.25 19.274 2.42408 19.4835 2.77225C19.6932 3.12025 19.7032 3.47567 19.5135 3.8385L16.3095 9.64225C16.1455 9.93075 15.9286 10.1554 15.6588 10.3162C15.3888 10.4773 15.0929 10.5577 14.7713 10.5577H7.475L6.31725 12.673C6.26592 12.75 6.26433 12.8333 6.3125 12.923C6.3605 13.0128 6.43258 13.0577 6.52875 13.0577H17.2213C17.4339 13.0577 17.6121 13.1295 17.7558 13.273C17.8993 13.4167 17.971 13.5949 17.971 13.8077C17.971 14.0206 17.8993 14.1987 17.7558 14.3422C17.6121 14.4859 17.4339 14.5577 17.2213 14.5577H6.52875C5.86208 14.5577 5.36117 14.2703 5.026 13.6953C4.69067 13.1203 4.67883 12.5462 4.9905 11.973L6.41725 9.40775L2.779 1.75H1.625C1.41217 1.75 1.234 1.67817 1.0905 1.5345C0.946833 1.391 0.875 1.21283 0.875 1C0.875 0.787167 0.946833 0.609 1.0905 0.4655C1.234 0.321833 1.41217 0.25 1.625 0.25H3.15375C3.32442 0.25 3.48342 0.295166 3.63075 0.3855C3.77825 0.476 3.89042 0.60325 3.96725 0.76725L4.67125 2.25Z" fill="#A1A5B7"/>
</svg>
